<svg width="500" height="500" viewBox="0 0 500 500" fill="none" xmlns="http://www.w3.org/2000/svg">
<path d="M27.3501 208.53C29.8775 183.626 38.5532 159.741 52.5974 139.02C66.6416 118.299 85.6142 101.393 107.81 89.82C147.114 69.3838 189.997 56.7353 234.1 52.57C354 41.32 387.75 102.78 408 158.24C428.25 213.7 494.19 307.39 487.45 399.58C487.45 399.58 482.2 450.58 462.71 473.78H26.4901C26.4901 473.78 1.0001 439.3 28.0001 374.1C55.0001 308.9 19.0001 305.89 25.7501 225.7C26.2601 219.58 26.8001 213.87 27.3501 208.53Z" fill="#FDD30A"/>
<path opacity="0.7" d="M27.3501 208.53C29.8775 183.626 38.5532 159.741 52.5974 139.02C66.6416 118.299 85.6142 101.393 107.81 89.82C147.114 69.3838 189.997 56.7353 234.1 52.57C354 41.32 387.75 102.78 408 158.24C428.25 213.7 494.19 307.39 487.45 399.58C487.45 399.58 482.2 450.58 462.71 473.78H26.4901C26.4901 473.78 1.0001 439.3 28.0001 374.1C55.0001 308.9 19.0001 305.89 25.7501 225.7C26.2601 219.58 26.8001 213.87 27.3501 208.53Z" fill="white"/>
<g opacity="0.3">
<path d="M105.85 28.8096H39.2305V124.17H105.85V28.8096Z" stroke="black" stroke-linecap="round" stroke-linejoin="round"/>
<path d="M177.051 28.8096H110.431V124.17H177.051V28.8096Z" stroke="black" stroke-linecap="round" stroke-linejoin="round"/>
<path d="M248.24 28.8096H181.62V124.17H248.24V28.8096Z" stroke="black" stroke-linecap="round" stroke-linejoin="round"/>
<path d="M105.85 128.739H39.2305V224.099H105.85V128.739Z" stroke="black" stroke-linecap="round" stroke-linejoin="round"/>
<path d="M177.051 128.739H110.431V224.099H177.051V128.739Z" stroke="black" stroke-linecap="round" stroke-linejoin="round"/>
<path d="M248.24 128.739H181.62V224.099H248.24V128.739Z" stroke="black" stroke-linecap="round" stroke-linejoin="round"/>
<path d="M105.85 228.68H39.2305V324.04H105.85V228.68Z" stroke="black" stroke-linecap="round" stroke-linejoin="round"/>
<path d="M177.051 228.68H110.431V324.04H177.051V228.68Z" stroke="black" stroke-linecap="round" stroke-linejoin="round"/>
<path d="M248.24 228.68H181.62V324.04H248.24V228.68Z" stroke="black" stroke-linecap="round" stroke-linejoin="round"/>
</g>
<path d="M446.519 43.1797V346.63C446.519 350.63 444.931 354.467 442.103 357.296C439.275 360.126 435.44 361.717 431.439 361.72H300.319C296.319 361.717 292.483 360.126 289.655 357.296C286.828 354.467 285.239 350.63 285.239 346.63V43.1697C285.239 39.1729 286.827 35.3398 289.653 32.5136C292.479 29.6874 296.312 28.0997 300.309 28.0997H356.589L356.639 28.2697C358.039 33.3197 361.269 36.5997 364.849 36.5997H366.849C370.439 36.5997 373.659 33.3197 375.069 28.2697L375.119 28.0997H431.389C433.374 28.0931 435.34 28.4783 437.175 29.2332C439.011 29.9881 440.679 31.0978 442.085 32.4988C443.49 33.8998 444.606 35.5644 445.367 37.3973C446.128 39.2301 446.519 41.1951 446.519 43.1797Z" fill="white"/>
<path d="M446.519 260.77V43.1796C446.519 39.1801 444.93 35.3445 442.102 32.5164C439.274 29.6884 435.439 28.0996 431.439 28.0996H375.169L375.119 28.2696C373.709 33.3196 370.489 36.5996 366.899 36.5996H364.899C361.319 36.5996 358.089 33.3196 356.689 28.2696L356.639 28.0996H300.309C296.312 28.0996 292.479 29.6873 289.653 32.5135C286.827 35.3397 285.239 39.1728 285.239 43.1696V260.77H446.519Z" fill="#FDD30A"/>
<path d="M375.119 28.2696C373.709 33.3196 370.489 36.5996 366.899 36.5996H364.899C361.319 36.5996 358.089 33.3196 356.689 28.2696L356.639 28.0996H309.159C303.468 28.0995 297.963 30.128 293.632 33.821C289.301 37.5139 286.428 42.6295 285.529 48.2496H446.219C445.321 42.6312 442.449 37.5169 438.121 33.8242C433.792 30.1314 428.289 28.1019 422.599 28.0996H375.169L375.119 28.2696Z" fill="#D4D4D4"/>
<path d="M456.77 115.66V85.3499H454V46.5499C454 40.2059 451.48 34.1218 446.994 29.6359C442.508 25.15 436.424 22.6299 430.08 22.6299H301.64C298.499 22.6299 295.388 23.2486 292.486 24.4507C289.584 25.6528 286.947 27.4147 284.726 29.6359C282.505 31.8571 280.743 34.494 279.541 37.3961C278.338 40.2982 277.72 43.4087 277.72 46.5499V354.88C277.72 358.021 278.338 361.132 279.541 364.034C280.743 366.936 282.505 369.573 284.726 371.794C286.947 374.015 289.584 375.777 292.486 376.979C295.388 378.181 298.499 378.8 301.64 378.8H430.11C436.448 378.792 442.525 376.268 447.004 371.783C451.484 367.298 454 361.219 454 354.88V141.49H456.74V123.58H454V115.66H456.77ZM446.52 337.8C446.517 344.143 443.996 350.226 439.511 354.711C435.026 359.196 428.943 361.717 422.6 361.72H309.16C306.019 361.72 302.908 361.101 300.006 359.899C297.104 358.697 294.467 356.935 292.246 354.714C290.025 352.493 288.263 349.856 287.061 346.954C285.858 344.052 285.24 340.941 285.24 337.8V51.9999C285.245 45.6594 287.768 39.5804 292.253 35.0988C296.738 30.6173 302.819 28.0999 309.16 28.0999H356.59L356.64 28.2699C358.04 33.3199 361.27 36.5999 364.85 36.5999H366.85C370.44 36.5999 373.66 33.3199 375.07 28.2699L375.12 28.0999H422.6C428.939 28.1025 435.019 30.6208 439.504 35.1017C443.988 39.5827 446.512 45.6602 446.52 51.9999V337.8Z" fill="#707070" stroke="#263238" stroke-linejoin="round"/>
<path d="M428.199 25.9297H303.559C300.529 25.9284 297.529 26.5242 294.729 27.6831C291.93 28.842 289.386 30.5413 287.243 32.6838C285.101 34.8263 283.402 37.3701 282.243 40.1696C281.084 42.9692 280.488 45.9697 280.489 48.9997V352.44C280.489 355.469 281.086 358.468 282.246 361.267C283.405 364.065 285.105 366.608 287.247 368.749C289.389 370.891 291.933 372.589 294.732 373.747C297.53 374.906 300.53 375.501 303.559 375.5H428.199C431.228 375.5 434.226 374.903 437.024 373.744C439.822 372.585 442.364 370.887 444.505 368.746C446.646 366.604 448.345 364.062 449.504 361.264C450.663 358.467 451.259 355.468 451.259 352.44V48.9997C451.261 45.9706 450.665 42.9709 449.507 40.1719C448.349 37.373 446.65 34.8297 444.509 32.6873C442.367 30.545 439.825 28.8455 437.026 27.686C434.228 26.5265 431.228 25.9297 428.199 25.9297ZM446.519 338.65C446.519 344.768 444.089 350.636 439.762 354.963C435.436 359.289 429.568 361.72 423.449 361.72H308.309C302.191 361.72 296.323 359.289 291.996 354.963C287.67 350.636 285.239 344.768 285.239 338.65V51.1597C285.239 45.0438 287.669 39.1784 291.993 34.8538C296.318 30.5292 302.183 28.0997 308.299 28.0997H356.589L356.639 28.2697C358.039 33.3197 361.269 36.5997 364.849 36.5997H366.849C370.439 36.5997 373.659 33.3197 375.069 28.2697L375.119 28.0997H423.399C429.518 28.0997 435.386 30.5303 439.712 34.8567C444.039 39.1832 446.469 45.0511 446.469 51.1697L446.519 338.65Z" fill="#263238" stroke="#263238" stroke-linejoin="round"/>
<path d="M367.63 29.2402C367.63 28.7952 367.498 28.3602 367.251 27.9902C367.003 27.6202 366.652 27.3318 366.241 27.1615C365.83 26.9912 365.377 26.9467 364.941 27.0335C364.504 27.1203 364.104 27.3346 363.789 27.6492C363.474 27.9639 363.26 28.3648 363.173 28.8013C363.086 29.2377 363.131 29.6901 363.301 30.1013C363.471 30.5124 363.76 30.8638 364.13 31.111C364.5 31.3583 364.935 31.4902 365.38 31.4902C365.676 31.4916 365.969 31.4343 366.242 31.3217C366.516 31.2091 366.765 31.0434 366.974 30.8342C367.183 30.625 367.349 30.3764 367.461 30.1028C367.574 29.8293 367.631 29.5361 367.63 29.2402Z" fill="white"/>
<path d="M299.57 37.8497C299.57 40.1197 297.02 40.9397 297.01 42.6697V42.7897H299.49V43.5497H296.18V42.9097C296.18 40.4797 298.73 39.9997 298.73 37.9097C298.73 37.1397 298.47 36.7297 297.85 36.7297C297.23 36.7297 296.97 37.1697 296.97 37.8397V38.4997H296.18V37.8897C296.18 36.7397 296.71 35.9697 297.87 35.9697C299.03 35.9697 299.57 36.6997 299.57 37.8497Z" fill="#263238"/>
<path d="M303.7 37.8395V37.9995C303.735 38.3226 303.664 38.6485 303.498 38.9281C303.332 39.2076 303.08 39.4257 302.78 39.5495C303.082 39.6737 303.336 39.8933 303.502 40.1749C303.668 40.4565 303.737 40.7847 303.7 41.1095V41.6895C303.7 42.8495 303.16 43.5995 302 43.5995C300.84 43.5995 300.31 42.8495 300.31 41.6895V41.1795H301.09V41.7495C301.09 42.4295 301.37 42.8395 301.97 42.8395C302.57 42.8395 302.86 42.4395 302.86 41.6695V41.0895C302.86 40.3495 302.54 39.9895 301.91 39.9695H301.46V39.2195H302C302.127 39.2201 302.253 39.1939 302.37 39.1427C302.487 39.0914 302.591 39.0162 302.677 38.9219C302.763 38.8277 302.828 38.7164 302.868 38.5954C302.908 38.4744 302.922 38.3463 302.91 38.2195V37.8695C302.91 37.0995 302.64 36.6995 302.02 36.6995C301.4 36.6995 301.14 37.1195 301.14 37.7995V38.1795H300.36V37.8395C300.36 36.6895 300.89 35.9395 302.05 35.9395C303.21 35.9395 303.7 36.6895 303.7 37.8395Z" fill="#263238"/>
<path d="M305.32 38.4102V39.4102H304.52V38.4102H305.32ZM305.32 42.5102V43.5102H304.52V42.5102H305.32Z" fill="#263238"/>
<path d="M307 39.0895C307.11 38.8915 307.273 38.7278 307.471 38.6166C307.669 38.5055 307.893 38.4511 308.12 38.4595C309.12 38.4595 309.52 39.1695 309.52 40.2495V41.7195C309.52 42.8795 308.98 43.6295 307.82 43.6295C306.66 43.6295 306.13 42.8795 306.13 41.7195V41.2195H306.92V41.7795C306.92 42.4595 307.2 42.8695 307.8 42.8695C308.4 42.8695 308.68 42.4595 308.68 41.7795V40.3095C308.68 39.6395 308.4 39.2295 307.8 39.2295C307.691 39.2255 307.583 39.2431 307.481 39.2813C307.38 39.3194 307.287 39.3774 307.208 39.4519C307.129 39.5263 307.065 39.6157 307.021 39.7148C306.977 39.814 306.952 39.921 306.95 40.0295V40.2095H306.17L306.37 36.0195H309.37V36.7695H307.15L307 39.0895Z" fill="#263238"/>
<path d="M313.73 37.8295V37.9995H313V37.7995C313 37.1295 312.72 36.7295 312.1 36.7295C311.48 36.7295 311.19 37.1395 311.19 37.9395V39.5995C311.278 39.3515 311.445 39.1393 311.665 38.9949C311.886 38.8505 312.147 38.7819 312.41 38.7995C313.41 38.7995 313.81 39.4995 313.81 40.5795V41.7195C313.81 42.8795 313.23 43.6295 312.08 43.6295C310.93 43.6295 310.35 42.8795 310.35 41.7195V37.8795C310.35 36.6895 310.89 35.9395 312.08 35.9395C313.27 35.9395 313.73 36.6795 313.73 37.8295ZM311.14 40.6495V41.7795C311.14 42.4595 311.42 42.8695 312.03 42.8695C312.64 42.8695 312.93 42.4595 312.93 41.7795V40.6495C312.93 39.9695 312.64 39.5595 312.03 39.5595C311.42 39.5595 311.14 39.9995 311.14 40.6495Z" fill="#263238"/>
<path d="M396.01 38.1602H393.88V43.4802H396.01V38.1602Z" fill="#263238"/>
<path d="M398.85 37.0898H396.72V43.4798H398.85V37.0898Z" fill="#263238"/>
<path d="M401.68 36.3398H399.55V43.4798H401.68V36.3398Z" fill="#263238"/>
<path d="M404.52 35.0195H402.39V43.4795H404.52V35.0195Z" fill="#263238"/>
<path d="M430.85 43.3303H418.08V35.5303H430.85V43.3303ZM418.79 42.6203H430.14V36.2403H418.79V42.6203Z" fill="#263238"/>
<path d="M426.599 37.0098H419.859V41.8498H426.599V37.0098Z" fill="#263238"/>
<path d="M432.02 38.5098H430.41V40.3498H432.02V38.5098Z" fill="#263238"/>
<path d="M413.4 41.6403C413.316 41.6372 413.233 41.6132 413.16 41.5703C410.56 40.0203 408.84 41.4603 408.77 41.5703C408.723 41.6116 408.668 41.6432 408.609 41.6631C408.55 41.683 408.487 41.6909 408.425 41.6862C408.362 41.6815 408.301 41.6645 408.246 41.636C408.19 41.6075 408.14 41.5682 408.1 41.5203C408.013 41.4307 407.964 41.3105 407.964 41.1853C407.964 41.0601 408.013 40.9399 408.1 40.8503C408.19 40.7703 410.39 38.8503 413.61 40.8503C413.664 40.8822 413.71 40.9243 413.747 40.9744C413.784 41.0244 413.811 41.0813 413.826 41.1418C413.841 41.2023 413.844 41.2651 413.834 41.3267C413.824 41.3882 413.803 41.4472 413.77 41.5003C413.722 41.5481 413.664 41.5852 413.6 41.6093C413.536 41.6334 413.468 41.644 413.4 41.6403Z" fill="#263238"/>
<path d="M414.36 39.9997C414.276 40.0002 414.194 39.9795 414.12 39.9397C410.36 37.6997 407.84 39.8597 407.81 39.8797C407.763 39.9211 407.709 39.9529 407.65 39.9733C407.591 39.9936 407.529 40.0022 407.467 39.9985C407.405 39.9948 407.344 39.9789 407.288 39.9516C407.232 39.9244 407.181 39.8864 407.14 39.8397C407.099 39.7931 407.067 39.7388 407.047 39.6799C407.026 39.621 407.018 39.5587 407.021 39.4965C407.025 39.4342 407.041 39.3734 407.068 39.3173C407.095 39.2612 407.133 39.2111 407.18 39.1697C407.18 39.1697 410.26 36.5297 414.61 39.1197C414.664 39.1516 414.71 39.1938 414.747 39.2438C414.784 39.2939 414.811 39.3508 414.826 39.4113C414.841 39.4717 414.844 39.5346 414.834 39.5961C414.824 39.6577 414.803 39.7167 414.77 39.7697C414.727 39.84 414.667 39.8981 414.595 39.9384C414.523 39.9786 414.442 39.9998 414.36 39.9997Z" fill="#263238"/>
<path d="M415.239 38.18C415.152 38.177 415.066 38.153 414.989 38.11C410.229 35.28 407.069 37.94 406.939 38.11C406.892 38.1514 406.837 38.1829 406.778 38.2028C406.719 38.2227 406.656 38.2306 406.594 38.2259C406.531 38.2213 406.47 38.2042 406.415 38.1757C406.359 38.1472 406.31 38.1079 406.269 38.06C406.225 38.0163 406.189 37.9642 406.165 37.9066C406.141 37.8491 406.129 37.7874 406.129 37.725C406.129 37.6627 406.141 37.6009 406.165 37.5434C406.189 37.4859 406.225 37.4338 406.269 37.39C406.269 37.39 410.059 34.14 415.439 37.34C415.547 37.4046 415.625 37.5088 415.657 37.6303C415.689 37.7519 415.672 37.881 415.609 37.99C415.565 38.0469 415.509 38.0934 415.445 38.1262C415.381 38.1591 415.311 38.1774 415.239 38.18Z" fill="#263238"/>
<path d="M412 42.4302C412.002 42.668 411.933 42.901 411.802 43.0996C411.672 43.2983 411.485 43.4536 411.266 43.546C411.047 43.6384 410.805 43.6635 410.572 43.6184C410.338 43.5732 410.123 43.4597 409.955 43.2923C409.786 43.1249 409.671 42.9111 409.623 42.678C409.576 42.445 409.599 42.2032 409.69 41.9834C409.781 41.7635 409.934 41.5755 410.132 41.4432C410.329 41.3109 410.562 41.2402 410.8 41.2402C411.116 41.2402 411.42 41.3653 411.645 41.5882C411.869 41.811 411.997 42.1137 412 42.4302Z" fill="#263238"/>
<path d="M437.89 110.189H295.43V201.359H437.89V110.189Z" fill="white" stroke="#263238" stroke-linecap="round" stroke-linejoin="round"/>
<path d="M437.89 191.21H295.43V201.37H437.89V191.21Z" fill="white" stroke="#263238" stroke-linecap="round" stroke-linejoin="round"/>
<path d="M437.89 194.81H295.43V197.77H437.89V194.81Z" fill="white" stroke="#263238" stroke-linecap="round" stroke-linejoin="round"/>
<path d="M297.72 100.36L297.94 87.6104H300.69L302.27 95.6104L303.95 87.6104H306.62L306.84 100.36H305L304.79 91.7204L303.17 100.36H301.5L299.8 91.6504L299.62 100.36H297.72Z" fill="#263238"/>
<path d="M310.29 100.36V95.3602L307.8 87.6602H310.24L311.61 92.1402L312.88 87.6602H315.25L312.79 95.3602V100.36H310.29Z" fill="#263238"/>
<path d="M323.72 100.54C322.934 100.581 322.152 100.393 321.47 100C320.927 99.6506 320.521 99.1244 320.32 98.5103C320.091 97.7966 319.983 97.0496 320 96.3003V91.7203C319.983 90.9473 320.095 90.1768 320.33 89.4403C320.532 88.843 320.935 88.3342 321.47 88.0003C322.156 87.6196 322.936 87.4394 323.72 87.4803C324.463 87.443 325.204 87.598 325.87 87.9303C326.377 88.2215 326.767 88.6816 326.97 89.2303C327.197 89.8476 327.306 90.5025 327.29 91.1603V92.2003H324.77V91.0003C324.786 90.7238 324.786 90.4467 324.77 90.1703C324.75 89.9385 324.659 89.7185 324.51 89.5403C324.409 89.4529 324.291 89.3866 324.164 89.3454C324.037 89.3042 323.903 89.2888 323.77 89.3003C323.634 89.2888 323.498 89.305 323.369 89.348C323.24 89.391 323.121 89.4598 323.02 89.5503C322.854 89.7299 322.749 89.9574 322.72 90.2003C322.678 90.4951 322.658 90.7926 322.66 91.0903V96.8903C322.657 97.2021 322.684 97.5135 322.74 97.8203C322.781 98.057 322.896 98.2743 323.07 98.4403C323.271 98.5911 323.519 98.6655 323.77 98.6503C323.9 98.6638 324.032 98.6494 324.156 98.608C324.28 98.5666 324.394 98.4992 324.49 98.4103C324.641 98.2203 324.734 97.9914 324.76 97.7503C324.781 97.464 324.781 97.1766 324.76 96.8903V95.6503H327.28V96.7103C327.295 97.39 327.19 98.0669 326.97 98.7103C326.77 99.2706 326.385 99.7465 325.88 100.06C325.219 100.42 324.471 100.587 323.72 100.54Z" fill="#263238"/>
<path d="M332.44 100.54C331.667 100.579 330.898 100.402 330.22 100.03C329.677 99.6972 329.265 99.1893 329.05 98.5903C328.802 97.8701 328.683 97.1117 328.7 96.3503V91.5903C328.683 90.8288 328.802 90.0705 329.05 89.3503C329.266 88.7595 329.679 88.2615 330.22 87.9403C330.902 87.5808 331.669 87.4115 332.44 87.4503C333.22 87.4095 333.997 87.5787 334.69 87.9403C335.232 88.2666 335.648 88.7672 335.87 89.3603C336.126 90.0751 336.248 90.8311 336.23 91.5903V96.3503C336.248 97.1127 336.126 97.8719 335.87 98.5903C335.654 99.192 335.237 99.7008 334.69 100.03C334.001 100.404 333.222 100.58 332.44 100.54ZM332.44 98.6603C332.574 98.6745 332.709 98.6614 332.838 98.6219C332.967 98.5824 333.087 98.5172 333.19 98.4303C333.353 98.2631 333.461 98.0504 333.5 97.8203C333.553 97.5468 333.58 97.2689 333.58 96.9903V91.0003C333.58 90.725 333.553 90.4504 333.5 90.1803C333.457 89.9515 333.349 89.7399 333.19 89.5703C332.976 89.405 332.709 89.3264 332.44 89.3503C332.187 89.3323 331.937 89.4109 331.74 89.5703C331.574 89.7365 331.462 89.9492 331.42 90.1803C331.366 90.4504 331.34 90.725 331.34 91.0003V97.0003C331.341 97.2784 331.365 97.5559 331.41 97.8303C331.444 98.0619 331.553 98.2759 331.72 98.4403C331.922 98.6046 332.18 98.6836 332.44 98.6603Z" fill="#263238"/>
<path d="M341.55 100.54C340.768 100.584 339.99 100.411 339.3 100.04C338.764 99.715 338.363 99.2073 338.17 98.6104C337.938 97.8732 337.83 97.1028 337.85 96.3304V87.6104H340.41V96.6904C340.413 97.0016 340.436 97.3123 340.48 97.6204C340.516 97.8919 340.627 98.1481 340.8 98.3604C340.895 98.4617 341.012 98.5404 341.142 98.5906C341.272 98.6408 341.411 98.6612 341.55 98.6504C341.69 98.658 341.83 98.6361 341.961 98.5861C342.092 98.5362 342.211 98.4592 342.31 98.3604C342.484 98.1495 342.592 97.8921 342.62 97.6204C342.661 97.312 342.681 97.0013 342.68 96.6904V87.6104H345.25V96.3304C345.266 97.1026 345.158 97.8723 344.93 98.6104C344.726 99.1908 344.327 99.6822 343.8 100C343.113 100.382 342.335 100.569 341.55 100.54Z" fill="#263238"/>
<path d="M347.06 100.36V87.6097H350.37C351.117 87.5908 351.862 87.6886 352.58 87.8997C353.155 88.0566 353.658 88.4105 354 88.8997C354.353 89.5051 354.523 90.1997 354.49 90.8997C354.497 91.3664 354.453 91.8325 354.36 92.2897C354.273 92.6517 354.113 92.9921 353.89 93.2897C353.625 93.613 353.28 93.8613 352.89 94.0097L354.66 100.23H352L350.53 94.4497H349.62V100.23L347.06 100.36ZM349.66 93.0397H350.41C350.755 93.0575 351.1 92.9851 351.41 92.8297C351.652 92.6955 351.835 92.4738 351.92 92.2097C352.025 91.887 352.075 91.5491 352.07 91.2097C352.098 90.738 351.987 90.2684 351.75 89.8597C351.601 89.69 351.413 89.5593 351.202 89.4791C350.991 89.3989 350.764 89.3716 350.54 89.3997H349.66V93.0397Z" fill="#263238"/>
<path d="M359.5 100.54C358.806 100.569 358.117 100.418 357.5 100.1C356.973 99.8065 356.555 99.3504 356.31 98.7999C356.02 98.0912 355.864 97.3352 355.85 96.5699L358.09 96.1899C358.098 96.6309 358.151 97.0699 358.25 97.4999C358.308 97.7969 358.451 98.071 358.66 98.2899C358.848 98.4613 359.095 98.5543 359.35 98.5499C359.48 98.5654 359.613 98.5447 359.733 98.4901C359.853 98.4354 359.955 98.3489 360.03 98.2399C360.152 98.0165 360.214 97.7648 360.21 97.5099C360.224 97.0347 360.092 96.5666 359.83 96.1699C359.54 95.7656 359.205 95.3965 358.83 95.0699L357.51 93.9199C357.049 93.5389 356.657 93.0824 356.35 92.5699C356.035 92.0017 355.88 91.3591 355.9 90.7099C355.871 90.2643 355.939 89.8177 356.098 89.4003C356.256 88.9829 356.503 88.6043 356.82 88.2899C357.526 87.6992 358.43 87.3989 359.35 87.4499C359.89 87.4269 360.428 87.5331 360.92 87.7599C361.325 87.9453 361.671 88.2395 361.92 88.6099C362.143 88.9625 362.302 89.3518 362.39 89.7599C362.476 90.1653 362.532 90.5764 362.56 90.9899L360.33 91.3199C360.315 90.985 360.282 90.6511 360.23 90.3199C360.206 90.0674 360.109 89.8274 359.95 89.6299C359.861 89.541 359.755 89.472 359.638 89.4274C359.522 89.3827 359.396 89.3636 359.271 89.3712C359.147 89.3787 359.025 89.4129 358.914 89.4713C358.803 89.5297 358.706 89.6111 358.63 89.7099C358.488 89.9346 358.412 90.1943 358.41 90.4599C358.397 90.8529 358.505 91.2404 358.72 91.5699C358.968 91.9006 359.25 92.2055 359.56 92.4799L360.85 93.6099C361.385 94.066 361.85 94.5984 362.23 95.1899C362.635 95.8503 362.837 96.6155 362.81 97.3899C362.816 97.9564 362.675 98.5149 362.4 99.0099C362.131 99.4868 361.737 99.8811 361.26 100.15C360.716 100.43 360.11 100.564 359.5 100.54Z" fill="#263238"/>
<path d="M363.939 100.36V87.6104H369.499V89.4004H366.499V92.7904H368.789V94.6003H366.499V98.6003H369.499V100.36H363.939Z" fill="#263238"/>
<path d="M297.12 218.93V208.87H298.5V218.93H297.12Z" fill="#263238"/>
<path d="M300.13 218.93V208.87H301.08L303.94 215.55V208.87H305.11V218.93H304.21L301.32 212.06V218.93H300.13Z" fill="#263238"/>
<path d="M307.79 218.93V209.93H306.09V208.93H310.85V209.93H309.2V218.93H307.79Z" fill="#263238"/>
<path d="M311.819 218.93V208.87H313.819C314.388 208.853 314.955 208.945 315.489 209.14C315.917 209.288 316.274 209.592 316.489 209.99C316.72 210.473 316.83 211.005 316.809 211.54C316.815 211.898 316.771 212.255 316.679 212.6C316.612 212.896 316.479 213.173 316.289 213.41C316.097 213.632 315.848 213.798 315.569 213.89L316.989 218.89H315.639L314.319 214.17H313.229V218.89L311.819 218.93ZM313.219 213.2H313.749C314.089 213.219 314.428 213.171 314.749 213.06C314.992 212.968 315.189 212.785 315.299 212.55C315.429 212.233 315.487 211.892 315.469 211.55C315.508 211.103 315.396 210.656 315.149 210.28C314.976 210.127 314.773 210.013 314.552 209.946C314.331 209.879 314.098 209.86 313.869 209.89H313.249L313.219 213.2Z" fill="#263238"/>
<path d="M320.84 219C320.271 219.027 319.705 218.892 319.21 218.61C318.799 218.339 318.492 217.938 318.34 217.47C318.152 216.913 318.064 216.327 318.08 215.74V212C318.069 211.419 318.157 210.841 318.34 210.29C318.501 209.84 318.807 209.456 319.21 209.2C319.708 208.926 320.272 208.795 320.84 208.82C321.403 208.792 321.962 208.928 322.45 209.21C322.852 209.465 323.156 209.849 323.31 210.3C323.502 210.846 323.594 211.422 323.58 212V215.83C323.59 216.411 323.499 216.99 323.31 217.54C323.157 218.005 322.855 218.406 322.45 218.68C321.956 218.943 321.396 219.054 320.84 219ZM320.84 217.9C321.138 217.92 321.434 217.839 321.68 217.67C321.877 217.502 322.014 217.273 322.07 217.02C322.136 216.691 322.166 216.356 322.16 216.02V211.61C322.167 211.274 322.137 210.939 322.07 210.61C322.011 210.366 321.874 210.149 321.68 209.99C321.429 209.834 321.135 209.76 320.84 209.78C320.539 209.761 320.238 209.834 319.98 209.99C319.786 210.149 319.649 210.366 319.59 210.61C319.519 210.938 319.485 211.274 319.49 211.61V216.02C319.487 216.356 319.52 216.691 319.59 217.02C319.646 217.273 319.783 217.502 319.98 217.67C320.229 217.852 320.531 217.947 320.84 217.94V217.9Z" fill="#263238"/>
<path d="M325 218.929V208.869H327.19C327.799 208.841 328.405 208.958 328.96 209.209C329.378 209.423 329.707 209.777 329.89 210.209C330.089 210.753 330.184 211.33 330.17 211.909V215.609C330.183 216.221 330.088 216.83 329.89 217.409C329.724 217.873 329.402 218.265 328.98 218.519C328.466 218.799 327.884 218.93 327.3 218.899L325 218.929ZM326.4 217.929H327.2C327.588 217.967 327.976 217.86 328.29 217.629C328.525 217.399 328.664 217.088 328.68 216.759C328.732 216.301 328.756 215.84 328.75 215.379V212.109C328.759 211.684 328.726 211.258 328.65 210.839C328.632 210.699 328.584 210.564 328.51 210.443C328.436 210.323 328.337 210.219 328.22 210.139C327.895 209.967 327.528 209.887 327.16 209.909H326.4V217.929Z" fill="#263238"/>
<path d="M334.1 219C333.511 219.04 332.926 218.889 332.43 218.57C332.031 218.267 331.748 217.837 331.63 217.35C331.481 216.745 331.41 216.123 331.42 215.5V208.83H332.76V215.56C332.757 215.955 332.787 216.35 332.85 216.74C332.887 217.055 333.02 217.352 333.23 217.59C333.345 217.699 333.483 217.783 333.632 217.836C333.782 217.89 333.941 217.911 334.1 217.9C334.261 217.911 334.424 217.889 334.576 217.836C334.729 217.783 334.87 217.699 334.99 217.59C335.193 217.349 335.321 217.053 335.36 216.74C335.419 216.35 335.446 215.955 335.44 215.56V208.83H336.77V215.5C336.779 216.123 336.708 216.745 336.56 217.35C336.445 217.836 336.166 218.267 335.77 218.57C335.274 218.89 334.688 219.041 334.1 219Z" fill="#263238"/>
<path d="M340.77 218.999C340.187 219.034 339.608 218.879 339.12 218.559C338.719 218.259 338.431 217.833 338.3 217.349C338.137 216.801 338.059 216.231 338.07 215.659V212.109C338.057 211.508 338.134 210.908 338.3 210.329C338.429 209.856 338.719 209.443 339.12 209.159C339.601 208.896 340.138 208.752 340.686 208.74C341.234 208.728 341.778 208.848 342.27 209.089C342.643 209.321 342.925 209.674 343.07 210.089C343.241 210.591 343.322 211.119 343.31 211.649V212.439H342V211.729C342.003 211.395 341.983 211.061 341.94 210.729C341.922 210.478 341.816 210.24 341.64 210.059C341.402 209.881 341.106 209.799 340.81 209.829C340.499 209.8 340.188 209.889 339.94 210.079C339.747 210.275 339.621 210.527 339.58 210.799C339.524 211.16 339.497 211.525 339.5 211.889V215.889C339.486 216.29 339.53 216.691 339.63 217.079C339.679 217.335 339.826 217.561 340.04 217.709C340.271 217.85 340.54 217.916 340.81 217.899C340.957 217.912 341.105 217.896 341.246 217.851C341.386 217.807 341.517 217.735 341.63 217.639C341.805 217.445 341.914 217.2 341.94 216.939C341.981 216.608 342.001 216.274 342 215.939V215.189H343.33V215.939C343.335 216.487 343.261 217.033 343.11 217.559C342.983 218.002 342.707 218.387 342.33 218.649C341.86 218.928 341.314 219.05 340.77 218.999Z" fill="#263238"/>
<path d="M345.76 218.93V209.93H344.05V208.93H348.81V209.93H347.16V218.93H345.76Z" fill="#263238"/>
<path d="M349.85 218.93V208.87H351.23V218.93H349.85Z" fill="#263238"/>
<path d="M355.43 219C354.863 219.029 354.301 218.894 353.81 218.61C353.399 218.34 353.092 217.938 352.94 217.47C352.752 216.913 352.664 216.328 352.68 215.74V212C352.664 211.419 352.752 210.84 352.94 210.29C353.1 209.84 353.406 209.457 353.81 209.2C354.303 208.923 354.865 208.792 355.43 208.82C355.996 208.791 356.558 208.927 357.05 209.21C357.449 209.468 357.752 209.851 357.91 210.3C358.102 210.846 358.193 211.422 358.18 212V215.83C358.19 216.412 358.098 216.99 357.91 217.54C357.754 218.003 357.452 218.403 357.05 218.68C356.553 218.944 355.989 219.055 355.43 219ZM355.43 217.9C355.731 217.921 356.03 217.84 356.28 217.67C356.477 217.504 356.612 217.274 356.66 217.02C356.735 216.692 356.768 216.356 356.76 216.02V211.61C356.769 211.274 356.736 210.938 356.66 210.61C356.608 210.366 356.474 210.147 356.28 209.99C356.025 209.832 355.728 209.759 355.43 209.78C355.131 209.762 354.835 209.835 354.58 209.99C354.385 210.149 354.249 210.367 354.19 210.61C354.113 210.938 354.08 211.274 354.09 211.61V216.02C354.081 216.356 354.114 216.692 354.19 217.02C354.245 217.274 354.382 217.502 354.58 217.67C354.826 217.851 355.124 217.946 355.43 217.94V217.9Z" fill="#263238"/>
<path d="M359.56 218.93V208.87H360.51L363.37 215.55V208.87H364.54V218.93H363.64L360.75 212.06V218.93H359.56Z" fill="#263238"/>
<path d="M408.069 232.12H433.989" stroke="#263238" stroke-miterlimit="10"/>
<path d="M349.76 232.12H403.09" stroke="#263238" stroke-miterlimit="10"/>
<path d="M297.92 232.12H344.77" stroke="#263238" stroke-miterlimit="10"/>
<path d="M332.31 239.6H433.99" stroke="#263238" stroke-miterlimit="10"/>
<path d="M297.92 239.6H327.82" stroke="#263238" stroke-miterlimit="10"/>
<path d="M419.54 247.08H433.99" stroke="#263238" stroke-miterlimit="10"/>
<path d="M352.25 247.08H414.55" stroke="#263238" stroke-miterlimit="10"/>
<path d="M297.92 247.08H346.77" stroke="#263238" stroke-miterlimit="10"/>
<path d="M426.52 254.55H433.99" stroke="#263238" stroke-miterlimit="10"/>
<path d="M406.58 254.55H421.53" stroke="#263238" stroke-miterlimit="10"/>
<path d="M332.81 254.55H402.59" stroke="#263238" stroke-miterlimit="10"/>
<path d="M297.92 254.55H328.32" stroke="#263238" stroke-miterlimit="10"/>
<path d="M422.03 119.689L400.6 127.669L408.57 131.159L395.61 148.109L386.14 137.639L352.75 170.539L332.81 159.069L301.2 187.329H325.41L335.8 175.519L354.74 184.989L383.15 153.089L399.6 160.069L413.56 134.149L423.03 139.129L422.03 119.689Z" fill="#263238" stroke="#263238" stroke-linecap="round" stroke-linejoin="round"/>
<path d="M419.428 178.61C427.114 170.925 427.114 158.464 419.428 150.778C411.743 143.093 399.282 143.093 391.597 150.778C383.911 158.464 383.911 170.925 391.597 178.61C399.282 186.296 411.743 186.296 419.428 178.61Z" fill="white" stroke="#263238" stroke-linecap="round" stroke-linejoin="round"/>
<path d="M405.51 181.64C414.871 181.64 422.46 174.051 422.46 164.69C422.46 155.329 414.871 147.74 405.51 147.74C396.148 147.74 388.56 155.329 388.56 164.69C388.56 174.051 396.148 181.64 405.51 181.64Z" fill="white" stroke="#263238" stroke-linecap="round" stroke-linejoin="round"/>
<path d="M307.879 164.899H302.899V187.329H307.879V164.899Z" fill="#FDD30A"/>
<path d="M316.85 172.96H311.87V187.32H316.85V172.96Z" fill="#FDD30A"/>
<path d="M325.83 173.45H320.85V187.33H325.83V173.45Z" fill="#FDD30A"/>
<path d="M334.799 164.899H329.819V187.329H334.799V164.899Z" fill="#FDD30A"/>
<path d="M343.77 169.79H338.79V187.33H343.77V169.79Z" fill="#FDD30A"/>
<path d="M352.74 171.99H347.76V187.33H352.74V171.99Z" fill="#FDD30A"/>
<path d="M361.709 164.899H356.729V187.329H361.709V164.899Z" fill="#FDD30A"/>
<path d="M370.69 158.3H365.71V187.33H370.69V158.3Z" fill="#FDD30A"/>
<path d="M379.66 151.46H374.68V187.33H379.66V151.46Z" fill="#FDD30A"/>
<path d="M398.66 276.89H340.6V282.7H398.66V276.89Z" fill="#263238" stroke="#263238" stroke-linecap="round" stroke-linejoin="round"/>
<path d="M416.6 287.18H340.6V292.99H416.6V287.18Z" fill="#263238" stroke="#263238" stroke-linecap="round" stroke-linejoin="round"/>
<path d="M398.66 321.62H340.6V327.43H398.66V321.62Z" fill="#263238" stroke="#263238" stroke-linecap="round" stroke-linejoin="round"/>
<path d="M416.6 331.91H340.6V337.72H416.6V331.91Z" fill="#263238" stroke="#263238" stroke-linecap="round" stroke-linejoin="round"/>
<path d="M325.96 267.18H302.06C299.436 267.18 297.31 269.306 297.31 271.93V296.13C297.31 298.753 299.436 300.88 302.06 300.88H325.96C328.583 300.88 330.71 298.753 330.71 296.13V271.93C330.71 269.306 328.583 267.18 325.96 267.18Z" fill="#D4D4D4"/>
<path d="M314.01 292.4C318.632 292.4 322.38 288.653 322.38 284.03C322.38 279.408 318.632 275.66 314.01 275.66C309.387 275.66 305.64 279.408 305.64 284.03C305.64 288.653 309.387 292.4 314.01 292.4Z" fill="#263238"/>
<path d="M318.86 284.21L311.58 280.01V288.42L318.86 284.21Z" fill="white"/>
<path d="M325.96 310.689H302.06C299.436 310.689 297.31 312.816 297.31 315.439V339.639C297.31 342.263 299.436 344.389 302.06 344.389H325.96C328.583 344.389 330.71 342.263 330.71 339.639V315.439C330.71 312.816 328.583 310.689 325.96 310.689Z" fill="#D4D4D4"/>
<path d="M321.604 331.049C323.544 326.854 321.716 321.879 317.52 319.939C313.325 317.998 308.35 319.827 306.41 324.022C304.47 328.218 306.298 333.192 310.493 335.133C314.689 337.073 319.663 335.245 321.604 331.049Z" fill="#263238"/>
<path d="M318.86 327.73L311.58 323.52V331.93L318.86 327.73Z" fill="white"/>
<path d="M299.1 305.66H434.5" stroke="#263238" stroke-miterlimit="10"/>
<path d="M429.3 60.1797H439.87" stroke="#263238" stroke-linecap="round" stroke-linejoin="round"/>
<path d="M429.3 65.1895H439.87" stroke="#263238" stroke-linecap="round" stroke-linejoin="round"/>
<path d="M429.3 70.1895H439.87" stroke="#263238" stroke-linecap="round" stroke-linejoin="round"/>
<path d="M425.06 56.8496H296.26V73.5296H425.06V56.8496Z" fill="white" stroke="#263238" stroke-linecap="round" stroke-linejoin="round"/>
<path d="M311.56 62.4395C311.562 61.6574 311.332 60.8923 310.899 60.2412C310.465 59.5901 309.849 59.0823 309.126 58.7821C308.404 58.4819 307.609 58.4028 306.842 58.5549C306.075 58.707 305.37 59.0834 304.817 59.6364C304.264 60.1894 303.888 60.8942 303.736 61.6613C303.583 62.4285 303.663 63.2235 303.963 63.9457C304.263 64.6679 304.771 65.2847 305.422 65.718C306.073 66.1512 306.838 66.3815 307.62 66.3795C308.665 66.3795 309.667 65.9644 310.406 65.2255C311.145 64.4866 311.56 63.4844 311.56 62.4395Z" fill="white" stroke="#263238" stroke-linecap="round" stroke-linejoin="round"/>
<path d="M302.86 67.9697L299.95 71.6397" stroke="#263238" stroke-width="2" stroke-linecap="round" stroke-linejoin="round"/>
<path d="M304.989 65.29L302.859 67.97" stroke="#263238" stroke-linecap="round" stroke-linejoin="round"/>
<path d="M315.72 56.96V73.61" stroke="#263238" stroke-linecap="round" stroke-linejoin="round"/>
<path d="M73.3398 279.091C73.349 279.068 73.349 279.043 73.3396 279.02C73.3302 278.998 73.3123 278.98 73.2898 278.971C73.2672 278.962 73.2419 278.962 73.2194 278.971C73.1969 278.98 73.179 278.998 73.1698 279.021C70.3696 285.719 68.1579 292.649 66.5598 299.731C64.9389 306.813 63.7203 313.981 62.9098 321.201L62.3998 326.631C62.3198 327.541 62.2198 328.441 62.1498 329.351L61.9998 332.061C61.9298 333.881 61.8098 335.691 61.7598 337.511L61.8098 342.971L61.8698 345.691C61.8698 346.601 61.9798 347.511 62.0398 348.411C62.1798 350.231 62.2898 352.041 62.4498 353.851C62.7998 357.471 63.3498 361.061 63.8998 364.641C63.9044 364.664 63.917 364.684 63.9353 364.699C63.9536 364.714 63.9764 364.721 63.9998 364.721C63.9998 364.721 64.0998 364.721 64.0898 364.631C64.0898 362.821 64.0098 361.011 63.9698 359.201C63.9298 357.391 63.7598 355.591 63.7798 353.781C63.7998 351.971 63.7798 350.171 63.7198 348.371V345.661V342.961V337.561L63.8598 332.151L63.9198 329.451C63.9198 328.551 64.0198 327.651 64.0698 326.751L64.3998 321.351C65.015 314.159 66.0367 307.007 67.4598 299.931C68.8162 292.828 70.7835 285.855 73.3398 279.091Z" fill="#263238"/>
<path d="M74.1103 307.35C74.1183 307.327 74.1164 307.301 74.1052 307.278C74.0939 307.256 74.0742 307.238 74.0503 307.23C74.0265 307.223 74.0004 307.224 73.9779 307.236C73.9554 307.247 73.9383 307.267 73.9303 307.29C72.4003 311.787 71.1184 316.364 70.0903 321C69.0664 325.657 68.3052 330.368 67.8103 335.11C67.3303 339.84 66.8103 344.58 66.7403 349.33C66.6203 354.093 66.7907 358.859 67.2503 363.6C67.2525 363.621 67.2616 363.64 67.2762 363.655C67.2907 363.669 67.3098 363.678 67.3303 363.68C67.3554 363.683 67.3806 363.677 67.401 363.662C67.4214 363.647 67.4355 363.625 67.4403 363.6C67.9903 358.86 68.3203 354.14 68.6503 349.42C68.9803 344.7 69.0303 339.96 69.3403 335.24C69.6294 330.533 70.1836 325.846 71.0003 321.2C71.7863 316.531 72.8245 311.908 74.1103 307.35Z" fill="#263238"/>
<path d="M89.78 317.291C89.7619 317.275 89.7388 317.267 89.715 317.267C89.6912 317.267 89.6681 317.275 89.65 317.291C85.7296 319.81 82.1988 322.889 79.17 326.431C77.6509 328.21 76.2828 330.114 75.08 332.121L74.24 333.711L73.58 335.361C73.3551 335.896 73.1615 336.443 73 337.001C72.83 337.571 72.64 338.131 72.49 338.691C71.2917 343.213 70.5645 347.848 70.32 352.521C70.0883 357.167 70.2623 361.825 70.84 366.441C70.8456 366.461 70.8571 366.48 70.8731 366.494C70.8891 366.508 70.9089 366.517 70.93 366.521C70.9549 366.521 70.9789 366.512 70.9974 366.495C71.0159 366.478 71.0275 366.455 71.03 366.431L72.23 352.651C72.5666 348.091 73.1575 343.554 74 339.061C74.13 338.511 74.29 337.971 74.43 337.421C74.5596 336.869 74.7198 336.325 74.91 335.791L75.47 334.201L76.19 332.701C77.279 330.699 78.5334 328.793 79.94 327.001C82.7418 323.35 86.056 320.124 89.78 317.421C89.7888 317.412 89.7958 317.402 89.8005 317.391C89.8053 317.38 89.8078 317.368 89.8078 317.356C89.8078 317.343 89.8053 317.331 89.8005 317.32C89.7958 317.309 89.7888 317.299 89.78 317.291Z" fill="#263238"/>
<path d="M82.2001 335C80.1633 336.486 78.5277 338.455 77.4402 340.73C76.2897 342.956 75.394 345.304 74.7701 347.73C74.5801 348.33 74.4302 348.94 74.3002 349.55L73.8702 351.38C73.6435 352.61 73.4866 353.852 73.4002 355.1C73.4002 356.35 73.3502 357.6 73.4002 358.85C73.4896 360.099 73.6532 361.341 73.8901 362.57C73.8901 362.57 73.8901 362.64 73.9601 362.64C73.9853 362.646 74.0119 362.643 74.0343 362.629C74.0567 362.616 74.0731 362.595 74.0802 362.57C74.3669 361.36 74.5872 360.135 74.7401 358.9C74.9301 357.69 75.1201 356.49 75.2701 355.28C75.4201 354.07 75.6001 352.88 75.7001 351.67C75.8001 350.46 75.9501 349.25 76.2101 348.07C76.6157 345.686 77.2865 343.355 78.2101 341.12C79.0495 338.832 80.4205 336.775 82.2101 335.12C82.2189 335.112 82.2259 335.102 82.2307 335.091C82.2354 335.079 82.2379 335.067 82.2379 335.055C82.2379 335.043 82.2354 335.031 82.2307 335.02C82.2259 335.009 82.2189 334.999 82.2101 334.99C82.2066 334.993 82.2033 334.997 82.2001 335Z" fill="#263238"/>
<path d="M60.2202 348.801C59.7102 342.681 58.7002 336.621 57.7502 330.571C56.8002 324.521 55.7502 318.481 54.6302 312.461C53.5102 306.441 52.2802 300.461 50.9902 294.461C50.9821 294.438 50.9673 294.418 50.9476 294.404C50.928 294.389 50.9045 294.381 50.8802 294.381C50.8669 294.383 50.8543 294.388 50.843 294.396C50.8318 294.403 50.8221 294.413 50.8146 294.424C50.8072 294.435 50.802 294.448 50.7996 294.461C50.7971 294.474 50.7973 294.488 50.8002 294.501C51.8502 300.501 52.8002 306.571 53.6902 312.631C54.5802 318.691 55.4702 324.731 56.2302 330.801C56.9902 336.871 57.5602 342.951 58.3302 349.011L60.5602 367.221C60.5658 367.241 60.5773 367.26 60.5933 367.274C60.6093 367.288 60.6291 367.298 60.6502 367.301C60.6628 367.302 60.6756 367.301 60.6877 367.297C60.6998 367.293 60.711 367.287 60.7204 367.278C60.7299 367.27 60.7374 367.259 60.7425 367.248C60.7477 367.236 60.7503 367.224 60.7502 367.211C60.8202 365.681 60.8302 364.141 60.8602 362.601C60.8902 361.061 60.8002 359.541 60.7702 358.001C60.7202 354.911 60.4602 351.861 60.2202 348.801Z" fill="#263238"/>
<path d="M56.56 348.71C56.23 346.29 55.78 343.88 55.32 341.48L54.46 337.9C54.18 336.71 53.92 335.52 53.57 334.35C52.3507 329.603 50.7866 324.95 48.89 320.43L48.16 318.75L47.34 317.1C46.82 316 46.2 314.94 45.6 313.87C44.4009 311.724 42.9175 309.75 41.19 308C41.1816 307.992 41.1715 307.985 41.1603 307.98C41.1491 307.975 41.1371 307.973 41.125 307.973C41.1128 307.973 41.1008 307.975 41.0896 307.98C41.0785 307.985 41.0684 307.992 41.06 308C41.0512 308.009 41.0442 308.019 41.0395 308.03C41.0347 308.041 41.0322 308.053 41.0322 308.065C41.0322 308.078 41.0347 308.09 41.0395 308.101C41.0442 308.112 41.0512 308.122 41.06 308.13C42.6563 309.942 44.0017 311.96 45.06 314.13C45.59 315.22 46.16 316.29 46.61 317.41L47.33 319.07L47.97 320.77C49.6604 325.306 51.0206 329.958 52.04 334.69C52.6 337.04 52.97 339.44 53.43 341.81L54 345.4C54.21 346.59 54.46 347.77 54.63 348.97C55.01 351.37 55.45 353.75 55.87 356.14C56.29 358.53 56.68 360.94 57.18 363.34C57.1862 363.362 57.1992 363.382 57.2171 363.396C57.2351 363.411 57.257 363.419 57.28 363.42C57.3047 363.418 57.3277 363.406 57.3443 363.388C57.3609 363.369 57.3701 363.345 57.37 363.32C57.37 360.88 57.37 358.43 57.2 355.99C57.03 353.55 56.81 351.14 56.56 348.71Z" fill="#263238"/>
<path d="M51.4905 349C50.3605 345.79 49.0505 342.65 47.6205 339.57C46.1777 336.499 44.5514 333.517 42.7505 330.64C42.7324 330.625 42.7094 330.616 42.6855 330.616C42.6617 330.616 42.6386 330.625 42.6205 330.64C42.6117 330.649 42.6048 330.659 42.6 330.67C42.5952 330.681 42.5928 330.693 42.5928 330.705C42.5928 330.717 42.5952 330.729 42.6 330.741C42.6048 330.752 42.6117 330.762 42.6205 330.77C44.1787 333.761 45.5546 336.843 46.7405 340C47.9905 343.13 49.1105 346.3 50.0405 349.53C50.9705 352.76 51.6805 356.03 52.5405 359.27C53.4005 362.51 54.1705 365.77 55.1705 369.04C55.1761 369.061 55.1876 369.079 55.2036 369.094C55.2196 369.108 55.2394 369.117 55.2605 369.12C55.2863 369.118 55.3104 369.107 55.3287 369.088C55.347 369.07 55.3583 369.046 55.3605 369.02C55.3833 365.601 55.0481 362.189 54.3605 358.84C53.6717 355.488 52.7119 352.197 51.4905 349Z" fill="#263238"/>
<path d="M51.2798 359.71C50.6605 357.71 49.7544 355.81 48.5898 354.07C47.5082 352.275 46.1897 350.633 44.6698 349.19C43.8931 348.496 43.0602 347.867 42.1798 347.31C41.3096 346.73 40.355 346.288 39.3498 346C39.3341 345.988 39.3147 345.981 39.2948 345.981C39.2749 345.981 39.2556 345.988 39.2398 346C39.2243 346.018 39.2158 346.041 39.2158 346.065C39.2158 346.089 39.2243 346.112 39.2398 346.13C41.0748 347.019 42.6979 348.291 43.9998 349.86C45.3083 351.355 46.4083 353.02 47.2698 354.81C48.1998 356.57 48.6798 358.51 49.4798 360.32C49.8398 361.25 50.1898 362.18 50.6098 363.11C50.9544 364.081 51.3654 365.026 51.8398 365.94C51.8472 365.955 51.8586 365.968 51.8728 365.977C51.8869 365.985 51.9032 365.99 51.9198 365.99C51.9325 365.992 51.9452 365.99 51.9573 365.986C51.9694 365.983 51.9806 365.976 51.99 365.968C51.9995 365.959 52.007 365.949 52.0122 365.937C52.0173 365.926 52.0199 365.913 52.0198 365.9C52.0583 364.856 52.0215 363.81 51.9098 362.77C51.7498 361.75 51.5298 360.73 51.2798 359.71Z" fill="#263238"/>
<path d="M51.6602 303.21C48.6063 302.355 45.8439 300.681 43.671 298.371C41.4982 296.061 39.9973 293.201 39.3302 290.1C37.0002 279.3 44.4702 283.93 37.7802 267C31.0902 250.07 32.6402 246.15 35.0002 241.26C37.3602 236.37 38.5902 237.92 40.6502 244.35C42.7102 250.78 50.1202 260.8 53.0002 279.56C55.8802 298.32 51.6602 303.21 51.6602 303.21Z" fill="#FDD30A"/>
<path d="M71.4505 285C71.4505 285 64.7705 282.68 64.5105 270.09C64.2505 257.5 69.4005 260.09 70.1705 244.39C70.9405 228.69 71.9705 217.66 74.7905 217.39C77.6105 217.12 85.0805 225.1 87.6505 242.58C90.2205 260.06 84.3005 271.58 79.1605 276.76C74.0205 281.94 71.4505 285 71.4505 285Z" fill="#FDD30A"/>
<path d="M48.0602 318.37C48.0602 318.37 46.5202 309.12 43.4402 304.75C40.3602 300.38 33.6702 296.52 29.3002 288C24.9302 279.48 20.0502 275.41 20.3002 287.49C20.5502 299.57 26.0002 305.78 32.6402 309.89C39.2802 314 48.0602 318.37 48.0602 318.37Z" fill="#FDD30A"/>
<path d="M45.2402 334.31C45.2402 334.31 39.0702 322.48 30.0702 313.74C21.0702 305 13.8802 300.64 16.4502 305C19.0202 309.36 22.1102 309.11 26.4502 316.82C30.7902 324.53 29.5402 330.18 35.7102 334.55C41.8802 338.92 45.2402 334.31 45.2402 334.31Z" fill="#FDD30A"/>
<path d="M44.4703 349.47C44.2103 348.7 43.9503 343.04 35.2103 338.42C26.4703 333.8 18.2103 335.59 19.2803 337.9C20.3503 340.21 25.7003 344.07 31.1003 346.39C36.5003 348.71 44.4703 349.47 44.4703 349.47Z" fill="#FDD30A"/>
<path d="M70.9403 318.88C70.9403 318.88 67.0803 314 69.1403 303.72C71.2003 293.44 75.8203 296 81.0003 290.61C86.1803 285.22 85.1203 284.44 90.2603 278.79C95.4003 273.14 100.02 270.05 102.08 272.36C104.14 274.67 101.08 281.87 97.9703 285.99C94.8603 290.11 89.9703 292.15 87.6903 297.29C85.4103 302.43 86.4003 310.66 80.4903 314.51C74.5803 318.36 70.9403 318.88 70.9403 318.88Z" fill="#FDD30A"/>
<path d="M83.79 321.711C83.79 321.711 93 311.171 99.73 303.461C106.46 295.751 108.98 289.841 109.24 294.981C109.5 300.121 111.55 304.231 106.15 310.921C100.75 317.611 83.79 321.711 83.79 321.711Z" fill="#FDD30A"/>
<path d="M78.9105 338.67C78.9105 338.67 78.6505 334.56 93.3005 325.05C107.95 315.54 114.12 313.74 112.58 317.6C111.04 321.46 104.58 325.31 97.6705 332.25C90.7605 339.19 78.9105 338.67 78.9105 338.67Z" fill="#FDD30A"/>
<path d="M52.2704 302.11C52.2704 302.11 48.8404 283.67 45.2704 270.56C41.7004 257.45 39.3604 249.49 39.3604 249.49" stroke="#263238" stroke-linecap="round" stroke-linejoin="round"/>
<path d="M70.8604 285.15C70.8604 285.15 77.1104 265.15 79.1604 253.09C81.2104 241.03 78.9103 232.01 77.8803 226.61" stroke="#263238" stroke-linecap="round" stroke-linejoin="round"/>
<path d="M47.2504 318.001C44.4853 313.242 41.317 308.728 37.7804 304.511C32.1304 297.831 27.7804 294.231 25.1904 287.801" stroke="#263238" stroke-linecap="round" stroke-linejoin="round"/>
<path d="M70.9404 318.88C70.9404 318.88 73.0004 306.55 77.8804 300.12C82.7604 293.69 92.5304 283.67 96.3804 277.25" stroke="#263238" stroke-linecap="round" stroke-linejoin="round"/>
<path d="M43.8598 349.191C43.8598 349.191 35.2098 343.561 29.0498 340.471" stroke="#263238" stroke-linecap="round" stroke-linejoin="round"/>
<path d="M93.38 401C92.81 385.41 75.48 375 75.48 375H48.92C48.92 375 31.59 385.4 31 401C30.41 416.6 50.64 473.79 50.64 473.79H73.74C73.74 473.79 94 416.59 93.38 401Z" fill="#263238" stroke="#263238" stroke-linecap="round" stroke-linejoin="round"/>
<path d="M78.8998 359.671H45.0098L48.9198 375.001H74.9898L78.8998 359.671Z" fill="#263238" stroke="#263238" stroke-linecap="round" stroke-linejoin="round"/>
<path d="M213.249 274.56C213.249 274.56 204.479 283.86 204.479 286.78C204.479 289.7 205.539 296.62 205.009 299.27C204.479 301.92 182.689 318.67 182.689 318.67L189.329 335.41C189.329 335.41 207.129 307.25 212.449 299.81C217.769 292.37 223.609 284.66 224.139 280.67C224.669 276.68 215.639 273 213.249 274.56Z" fill="#D4D4D4" stroke="#263238" stroke-miterlimit="10"/>
<path d="M214.71 343.55L240.54 333.37C240.54 333.37 257.36 314.37 270.24 300.45C283.12 286.53 299.24 289.71 299.24 299.73C299.24 309.75 294.59 324.73 290.3 331.23C286.01 337.73 277.41 354.49 277.41 354.49C277.41 354.49 307.48 361.65 315.71 366.3C323.94 370.95 357 394.41 374 406.66C385.18 414.66 391.67 417.92 393.46 417.92C393.94 417.92 394.8 417.84 395.82 417.72C399.91 417.24 404.82 412.93 408.34 410.72C413.17 407.72 420.56 403.57 424.86 403.12C431.66 402.4 429.16 412.42 424.15 419.58C419.14 426.74 410.15 428.89 406.97 431.39C403.79 433.89 396.97 435.33 394.44 435.69C391.91 436.05 369.39 426.74 359.72 422.8C350.05 418.86 331.82 417.96 320.8 404.8C317.149 400.354 313.039 396.305 308.54 392.72C308.54 392.72 248.77 395.22 238.03 396.3C227.29 397.38 202.6 398.09 192.22 398.09C181.84 398.09 176.55 393.98 176.55 393.98C176.55 393.98 172.55 388.42 178.62 379.48C184.69 370.54 214.71 343.55 214.71 343.55Z" fill="#6E6E6E" stroke="#263238" stroke-miterlimit="10"/>
<path d="M424.149 419.63C429.149 412.47 431.659 402.45 424.859 403.17C420.559 403.62 413.169 407.78 408.339 410.77C404.829 412.93 399.909 417.24 395.819 417.77C394.819 417.89 393.939 417.97 393.459 417.97C391.949 417.97 387.049 415.65 378.799 410.06C377.639 414.88 374.279 420.97 365.279 425.17C376.149 429.6 392.339 436.09 394.439 435.79C396.949 435.43 403.749 434 406.969 431.49C410.189 428.98 419.139 426.79 424.149 419.63Z" fill="#D4D4D4" stroke="#263238" stroke-miterlimit="10"/>
<path d="M424.15 419.63C429.15 412.47 431.66 402.45 424.86 403.17C420.56 403.62 413.17 407.78 408.34 410.77C404.83 412.93 399.91 417.24 395.82 417.77C394.82 417.89 393.94 417.97 393.46 417.97C392.959 417.928 392.467 417.814 392 417.63C393.22 420.53 394.3 426.74 386 433.3C390.32 434.87 393.6 435.91 394.47 435.79C396.98 435.43 403.78 434 407 431.49C410.22 428.98 419.14 426.79 424.15 419.63Z" fill="white" stroke="#263238" stroke-miterlimit="10"/>
<path d="M238.35 346.14C237.581 345.597 236.783 345.097 235.96 344.64" stroke="#263238" stroke-miterlimit="10"/>
<path d="M277.4 354.49L245 352.59C243.662 350.789 242.114 349.154 240.39 347.72" stroke="#263238" stroke-miterlimit="10"/>
<path d="M219.6 360.3C221.011 359.03 222.632 358.015 224.39 357.3" stroke="#263238" stroke-miterlimit="10"/>
<path d="M210.29 370.67C212.252 367.969 214.397 365.406 216.71 363" stroke="#263238" stroke-miterlimit="10"/>
<path d="M213.91 360.909C213.91 360.909 206.68 367.409 204.91 375.729" stroke="#263238" stroke-miterlimit="10"/>
<path d="M214.71 343.55C214.66 344.526 214.468 345.489 214.14 346.41C213.56 348.14 209.84 362.49 199.79 374.82C193.271 382.584 185.397 389.1 176.55 394.05C164.439 384.648 153.376 373.97 143.55 362.2C126.61 342.11 116.55 322.89 117.14 300.5C117.73 278.11 124.9 264.06 124.9 264.06L124.32 246.84C125.47 243.97 131.5 239.96 139.53 245.12C147.56 250.28 153.88 262.34 153.88 262.34L152.73 269.22C152.73 269.22 156.17 271.52 158.18 272.67C160.19 273.82 167.65 280.41 174.25 288.73C180.85 297.05 187.74 322.03 188.89 328.34C190.04 334.65 199.51 335.79 199.51 335.79L209.26 340.97L214.71 343.55Z" fill="#FDD30A" stroke="#263238" stroke-miterlimit="10"/>
<path d="M153.879 262.34L152.729 269.22C152.729 269.22 134.939 263.48 124.899 264.06L124.319 246.84C125.469 243.97 131.499 239.96 139.529 245.12C147.559 250.28 153.879 262.34 153.879 262.34Z" fill="#D4D4D4" stroke="#263238" stroke-miterlimit="10"/>
<path d="M163.929 215.94C163.929 215.94 168.809 228.65 167.549 231.94C166.821 233.852 166.207 235.805 165.709 237.79C165.709 237.79 173.149 245.88 171.709 248.03C170.269 250.18 166.429 251.17 166.429 251.17C166.429 251.17 165.429 264.63 164.599 266.84C163.769 269.05 161.189 271.36 155.869 269.84C150.549 268.32 142.759 263.4 139.869 261.04C136.979 258.68 135.199 241.71 135.199 241.71L141.199 239.81C141.199 239.81 139.749 232.42 140.479 231.06C141.209 229.7 149.479 230.67 148.059 225.59C146.639 220.51 143.689 218.43 145.349 216.59C147.009 214.75 163.929 215.94 163.929 215.94Z" fill="#D4D4D4" stroke="#263238" stroke-miterlimit="10"/>
<path d="M165.329 256C165.329 256 156.859 256.74 155.699 249.38" stroke="#263238" stroke-miterlimit="10"/>
<path d="M158.08 248.77L152.62 251.02" stroke="#263238" stroke-miterlimit="10"/>
<path d="M161.629 238.13C161.369 239.62 160.629 240.73 160.019 240.62C159.409 240.51 159.109 239.22 159.369 237.73C159.629 236.24 160.369 235.14 160.979 235.25C161.589 235.36 161.889 236.65 161.629 238.13Z" fill="#263238"/>
<path d="M157.21 233.94C157.21 233.94 161.1 230.35 164.5 233.34" stroke="#263238" stroke-miterlimit="10"/>
<path d="M170.4 215C170.03 218.13 163.93 216 163.93 216L151.36 219.74C151.36 219.74 151.62 224.96 151.5 228.42C151.38 231.88 144.19 234.21 144.19 234.21L143.19 249.99L124.19 249.21L121.46 242.83C121.46 242.83 109.46 231.61 110.77 220.49C111.57 213.68 116.69 207.04 124.93 203.49C127.8 202.271 130.831 201.472 133.93 201.12C137.255 200.741 140.613 200.774 143.93 201.22C163.05 203.71 170.77 211.83 170.4 215Z" fill="#263238" stroke="#263238" stroke-miterlimit="10"/>
<path d="M133.85 235.17L126.68 239.17C126.38 238.62 120 226.87 124.98 203.47C127.85 202.251 130.882 201.452 133.98 201.1C131.08 212.31 130.98 220.56 131.55 225.71C132.19 232 133.84 235.14 133.85 235.17Z" fill="white" stroke="#263238" stroke-miterlimit="10"/>
<path d="M136.202 253.786C142.253 251.411 145.233 244.58 142.858 238.529C140.483 232.478 133.653 229.498 127.602 231.873C121.551 234.249 118.571 241.079 120.946 247.13C123.321 253.181 130.151 256.161 136.202 253.786Z" fill="white" stroke="#263238" stroke-miterlimit="10"/>
<path d="M136.37 299.07C140.121 310.258 144.825 321.105 150.43 331.49C159.62 348.42 173.43 366.79 178.56 365.64C183.69 364.49 212.7 314.56 214.71 310.26C216.72 305.96 219.88 299.64 219.88 299.64C219.88 299.64 226.48 294.76 227.05 292.75C227.62 290.74 226.29 281.21 226.29 281.21C226.29 281.21 229.79 276.61 228.65 274.6C227.51 272.59 225.58 273.22 223.58 274.37C221.58 275.52 217.21 278.73 217.21 278.73C217.768 276.488 217.809 274.149 217.33 271.89C216.47 268.74 213.85 269.8 213.56 271.81C213.27 273.82 213.28 275.81 212.42 277.81C211.191 280.218 210.306 282.786 209.79 285.44C209.22 288.88 207.67 298.19 207.67 298.19C207.67 298.19 191.78 315.93 187.47 320.25C185.34 322.37 180.83 325.83 180.83 325.83L169.09 302.49C169.09 302.49 163.09 281.26 156.75 275.49C153.681 272.707 149.843 270.916 145.739 270.353C141.635 269.789 137.456 270.478 133.75 272.33" fill="#FDD30A"/>
<path d="M136.37 299.07C140.121 310.258 144.825 321.105 150.43 331.49C159.62 348.42 173.43 366.79 178.56 365.64C183.69 364.49 212.7 314.56 214.71 310.26C216.72 305.96 219.88 299.64 219.88 299.64C219.88 299.64 226.48 294.76 227.05 292.75C227.62 290.74 226.29 281.21 226.29 281.21C226.29 281.21 229.79 276.61 228.65 274.6C227.51 272.59 225.58 273.22 223.58 274.37C221.58 275.52 217.21 278.73 217.21 278.73C217.768 276.488 217.809 274.149 217.33 271.89C216.47 268.74 213.85 269.8 213.56 271.81C213.27 273.82 213.28 275.81 212.42 277.81C211.191 280.218 210.306 282.786 209.79 285.44C209.22 288.88 207.67 298.19 207.67 298.19C207.67 298.19 191.78 315.93 187.47 320.25C185.34 322.37 180.83 325.83 180.83 325.83L169.09 302.49C169.09 302.49 163.09 281.26 156.75 275.49C153.681 272.707 149.843 270.916 145.739 270.353C141.635 269.789 137.456 270.478 133.75 272.33" stroke="#263238" stroke-miterlimit="10"/>
<path d="M217.38 286C217.188 285.963 217.005 285.888 216.842 285.78C216.68 285.671 216.54 285.531 216.432 285.369C216.324 285.206 216.25 285.023 216.213 284.831C216.177 284.639 216.179 284.441 216.22 284.25L223.29 251.2C223.372 250.828 223.595 250.502 223.912 250.292C224.229 250.081 224.615 250.001 224.99 250.07C225.182 250.107 225.364 250.182 225.527 250.29C225.69 250.398 225.829 250.538 225.937 250.701C226.045 250.864 226.12 251.047 226.156 251.239C226.193 251.431 226.191 251.629 226.15 251.82L219.07 284.82C219.002 285.2 218.785 285.538 218.469 285.759C218.152 285.98 217.76 286.067 217.38 286Z" fill="#263238" stroke="#263238" stroke-miterlimit="10"/>
<path d="M227.049 292.75C227.619 290.75 226.289 281.21 226.289 281.21C226.289 281.21 229.789 276.61 228.649 274.6C227.509 272.59 225.579 273.22 223.579 274.37C221.579 275.52 217.209 278.73 217.209 278.73C217.767 276.488 217.808 274.149 217.329 271.89C216.469 268.74 213.849 269.8 213.559 271.81C213.269 273.82 213.279 275.81 212.419 277.81C211.191 280.218 210.305 282.786 209.789 285.44C209.219 288.88 207.669 298.19 207.669 298.19C207.669 298.19 204.989 301.19 201.529 305.01L212.999 313.46C213.879 311.88 214.479 310.76 214.709 310.26C216.709 305.95 219.879 299.64 219.879 299.64C219.879 299.64 226.479 294.76 227.049 292.75Z" fill="#D4D4D4" stroke="#263238" stroke-miterlimit="10"/>
<path d="M217.21 278.729C217.21 278.729 213.91 281.329 212.96 283.329" stroke="#263238" stroke-miterlimit="10"/>
<path d="M279.829 305.649C279.829 305.649 277.769 316.49 281.119 324.75C284.469 333.009 300.219 362.939 301.249 368.359C302.279 373.779 298.669 382.82 301.509 386.17C304.349 389.52 318.029 390.56 330.929 389.79C343.829 389.02 351.319 387.46 352.869 382.04C354.419 376.62 355.449 373.78 351.579 373.78C347.709 373.78 343.829 374.299 338.669 373.269C333.509 372.239 322.159 365.78 320.609 364.75C319.059 363.72 317.769 360.619 317.769 360.619C317.769 360.619 314.159 350.04 310.539 325.26C306.919 300.48 309.539 289.91 297.899 286.26C286.259 282.61 272.789 297.54 270.239 300.42" fill="#6E6E6E"/>
<path d="M279.829 305.649C279.829 305.649 277.769 316.49 281.119 324.75C284.469 333.01 300.219 362.939 301.249 368.359C302.279 373.779 298.669 382.82 301.509 386.17C304.349 389.52 318.029 390.56 330.929 389.79C343.829 389.02 351.319 387.46 352.869 382.04C354.419 376.62 355.449 373.78 351.579 373.78C347.709 373.78 343.829 374.299 338.669 373.269C333.509 372.239 322.159 365.78 320.609 364.75C319.059 363.72 317.769 360.619 317.769 360.619C317.769 360.619 314.159 350.04 310.539 325.26C306.919 300.48 309.539 289.91 297.899 286.26C286.259 282.61 272.789 297.54 270.239 300.42" stroke="#263238" stroke-miterlimit="10"/>
<path d="M352.869 382C354.419 376.58 355.449 373.74 351.579 373.74C347.709 373.74 343.829 374.26 338.669 373.23C333.509 372.2 322.159 365.74 320.609 364.71C319.059 363.68 317.769 360.58 317.769 360.58C316.336 355.938 315.158 351.221 314.239 346.45C305.149 343.3 298.239 349.28 294.819 353.28C298.139 360.22 300.819 366.19 301.249 368.28C302.249 373.7 298.669 382.74 301.509 386.09C304.349 389.44 318.029 390.48 330.929 389.71C343.829 388.94 351.319 387.46 352.869 382Z" fill="#D4D4D4" stroke="#263238" stroke-miterlimit="10"/>
<path d="M351.58 373.78C347.71 373.78 343.83 374.3 338.67 373.27C333.51 372.24 322.16 365.78 320.61 364.75C319.06 363.72 317.77 360.62 317.77 360.62C317.77 360.62 317.46 359.72 316.94 357.83C307.76 357.27 302.67 361.24 300.01 364.74C300.525 365.909 300.94 367.12 301.25 368.36C302.25 373.78 298.67 382.82 301.51 386.17C304.35 389.52 318.03 390.56 330.93 389.79C343.83 389.02 351.32 387.46 352.87 382.04C354.42 376.62 355.45 373.78 351.58 373.78Z" fill="white" stroke="#263238" stroke-miterlimit="10"/>
<path d="M226.79 435.18H126.26V441.15H226.79V435.18Z" fill="#919191" stroke="#263238" stroke-miterlimit="10"/>
<path d="M213.85 404.319L246.39 468.939C246.63 469.419 246.743 469.952 246.72 470.488C246.696 471.024 246.536 471.545 246.255 472.002C245.973 472.459 245.58 472.836 245.112 473.098C244.643 473.36 244.116 473.498 243.58 473.499C243.017 473.499 242.465 473.347 241.982 473.06C241.498 472.774 241.1 472.362 240.83 471.869L204.89 406.309L213.85 404.319Z" fill="#919191" stroke="#263238" stroke-miterlimit="10"/>
<path d="M141 387.08L111.41 469.5C111.216 470.001 111.153 470.543 111.228 471.074C111.303 471.606 111.513 472.109 111.838 472.537C112.163 472.964 112.592 473.301 113.084 473.515C113.577 473.729 114.116 473.814 114.65 473.76C115.211 473.707 115.748 473.503 116.204 473.171C116.66 472.838 117.018 472.389 117.24 471.87L150.06 388.18L141 387.08Z" fill="#919191" stroke="#263238" stroke-miterlimit="10"/>
<path d="M132.73 288.37C132.73 288.37 118.8 269.46 112.83 270.45C106.86 271.44 100.83 313.75 107.83 342.12C114.83 370.49 139.21 399.81 173 408.8C212.32 419.25 245.87 400.8 246.16 397.36C246.45 393.92 209.87 379.94 132.73 288.37Z" fill="#D4D4D4"/>
<path opacity="0.29" d="M173 408.8C212.32 419.25 245.87 400.8 246.16 397.36C246.28 395.91 240.04 392.66 227.16 382.82C162.63 385.11 125.06 359.57 108.26 343.93C115.87 371.72 139.93 400 173 408.8Z" fill="black"/>
<path d="M132.73 288.37C132.73 288.37 118.8 269.46 112.83 270.45C106.86 271.44 100.83 313.75 107.83 342.12C114.83 370.49 139.21 399.81 173 408.8C212.32 419.25 245.87 400.8 246.16 397.36C246.45 393.92 209.87 379.94 132.73 288.37Z" stroke="#263238" stroke-miterlimit="10"/>
<path d="M424.859 432C424.859 432 413.359 427.9 386.539 426C359.719 424.1 334.289 427 333.289 429.49C332.529 431.39 336.429 456.29 338.289 467.89C338.553 469.532 339.394 471.028 340.66 472.107C341.926 473.186 343.535 473.779 345.199 473.78H418.349C420.022 473.78 421.64 473.181 422.909 472.091C424.179 471.001 425.016 469.493 425.269 467.84L429.709 438.92C429.981 437.38 429.64 435.795 428.76 434.503C427.881 433.21 426.531 432.312 424.999 432H424.859Z" fill="#D4D4D4"/>
<path opacity="0.29" d="M423.59 471.42C388.12 471.5 369.24 453.83 360.31 438.35C356.83 432.35 351.16 428.71 345.31 426.58C338.23 427.37 333.67 428.46 333.31 429.49C332.55 431.39 336.45 456.29 338.31 467.89C338.574 469.533 339.414 471.028 340.68 472.107C341.947 473.187 343.556 473.78 345.22 473.78H418.37C419.357 473.777 420.333 473.565 421.232 473.159C422.132 472.752 422.935 472.159 423.59 471.42Z" fill="black"/>
<path d="M424.859 432C424.859 432 413.359 427.9 386.539 426C359.719 424.1 334.289 427 333.289 429.49C332.529 431.39 336.429 456.29 338.289 467.89C338.553 469.532 339.394 471.028 340.66 472.107C341.926 473.186 343.535 473.779 345.199 473.78H418.349C420.022 473.78 421.64 473.181 422.909 472.091C424.179 471.001 425.016 469.493 425.269 467.84L429.709 438.92C429.981 437.38 429.64 435.795 428.76 434.503C427.881 433.21 426.531 432.312 424.999 432H424.859Z" stroke="#263238" stroke-miterlimit="10"/>
<path d="M458.37 473.78H478.37" stroke="#263238" stroke-miterlimit="10"/>
<path d="M18.1104 473.78H450.03" stroke="#263238" stroke-miterlimit="10"/>
<path d="M406 154L408.47 161.601H416.462L409.996 166.298L412.466 173.899L406 169.202L399.534 173.899L402.004 166.298L395.538 161.601H403.53L406 154Z" fill="#FDD30A"/>
</svg>
