<svg width="395" height="558" viewBox="0 0 395 558" fill="none" xmlns="http://www.w3.org/2000/svg">
<path d="M98.9925 558C99.2296 558 99.3482 558 99.4544 557.965C99.5445 557.936 99.6276 557.888 99.6988 557.826C99.7827 557.752 99.8429 557.65 99.9633 557.445L265.536 276.572C265.597 276.469 265.627 276.418 265.648 276.363C265.666 276.317 265.678 276.268 265.686 276.219C265.695 276.161 265.694 276.102 265.692 275.983L261.603 2.84753C261.586 1.68269 261.577 1.10027 261.369 0.898412C261.198 0.731746 260.953 0.664069 260.721 0.71893C260.439 0.785375 260.132 1.28047 259.518 2.27067L166.241 152.764C166.173 152.873 166.139 152.928 166.116 152.987C166.097 153.037 166.083 153.089 166.075 153.142C166.066 153.205 166.068 153.269 166.073 153.397L170.201 271.567C170.205 271.691 170.207 271.753 170.199 271.814C170.191 271.865 170.178 271.916 170.16 271.965C170.138 272.022 170.106 272.075 170.043 272.182L1.01332 556.297C0.677922 556.86 0.510225 557.142 0.534905 557.374C0.555504 557.568 0.655666 557.744 0.811371 557.86C0.997915 558 1.3259 558 1.98186 558H98.9925Z" fill="#F8F5F0"/>
<path d="M216.218 385.769C216.093 385.979 216.031 386.083 216.007 386.195C215.986 386.29 215.986 386.388 216.005 386.483C216.028 386.596 216.089 386.701 216.211 386.912L315.189 557.439C315.309 557.645 315.369 557.749 315.453 557.823C315.525 557.887 315.608 557.935 315.699 557.965C315.806 558 315.925 558 316.164 558H409.062C409.705 558 410.027 558 410.212 557.863C410.367 557.748 410.468 557.575 410.491 557.383C410.519 557.154 410.359 556.875 410.041 556.315L266.654 304.391C266.336 303.832 266.177 303.553 265.967 303.46C265.791 303.382 265.59 303.38 265.413 303.454C265.2 303.543 265.035 303.819 264.707 304.371L216.218 385.769Z" fill="#F8F5F0"/>
</svg>
