<svg width="49" height="64" viewBox="0 0 49 64" fill="none" xmlns="http://www.w3.org/2000/svg">
<g id="Vector 59">
<path d="M11.2562 63.5C11.4858 63.5 11.6007 63.5 11.7042 63.4671C11.792 63.4392 11.8735 63.3942 11.9439 63.3347C12.0268 63.2646 12.088 63.1673 12.2102 62.9729L31.8271 31.775C31.8921 31.6717 31.9246 31.62 31.9474 31.5644C31.9669 31.5171 31.9811 31.4679 31.9898 31.4175C32 31.3583 32 31.2972 32 31.1751V2.84275C32 1.67916 32 1.09736 31.7956 0.892438C31.6268 0.723238 31.3834 0.651841 31.1499 0.703079C30.8672 0.765134 30.553 1.25477 29.9245 2.23406L20.4714 16.964C20.4044 17.0685 20.3708 17.1208 20.3472 17.1771C20.3272 17.2251 20.3125 17.2751 20.3035 17.3263C20.2929 17.3864 20.2929 17.4485 20.2929 17.5727V30.4233C20.2929 30.5439 20.2929 30.6042 20.2829 30.6627C20.2744 30.7125 20.2606 30.7612 20.2416 30.808C20.2192 30.863 20.1875 30.9143 20.124 31.0168L1.0659 61.7795C0.714095 62.3473 0.538191 62.6313 0.560175 62.8654C0.578518 63.0608 0.678026 63.2395 0.83445 63.358C1.02192 63.5 1.35593 63.5 2.02395 63.5H11.2562Z" fill="url(#paint0_linear_404_871)"/>
<path d="M25.9151 43.3933C25.7633 43.6151 25.6874 43.7261 25.6569 43.847C25.631 43.9494 25.6287 44.0563 25.65 44.1598C25.6752 44.2819 25.7461 44.3961 25.888 44.6244L37.2855 62.9678C37.4074 63.1641 37.4684 63.2622 37.5516 63.333C37.6221 63.3931 37.7039 63.4385 37.7921 63.4667C37.8961 63.5 38.0117 63.5 38.2427 63.5H47.5036C48.1637 63.5 48.4938 63.5 48.6807 63.3595C48.8366 63.2422 48.9366 63.0652 48.9564 62.8711C48.9801 62.6385 48.8096 62.3559 48.4685 61.7907L32.9054 36.0005C32.6009 35.4958 32.4486 35.2434 32.2474 35.154C32.0791 35.0791 31.888 35.0737 31.7157 35.1388C31.5097 35.2166 31.3433 35.4598 31.0104 35.9463L25.9151 43.3933Z" fill="url(#paint1_linear_404_871)"/>
</g>
<defs>
<linearGradient id="paint0_linear_404_871" x1="19" y1="24.9016" x2="53.2913" y2="45.7532" gradientUnits="userSpaceOnUse">
<stop stop-color="#AA8453"/>
<stop offset="0.173605" stop-color="#B99F7C"/>
<stop offset="0.334103" stop-color="#AB8554"/>
<stop offset="0.418887" stop-color="#B89D79"/>
<stop offset="0.871684" stop-color="#AA8453"/>
</linearGradient>
<linearGradient id="paint1_linear_404_871" x1="19" y1="24.9016" x2="53.2913" y2="45.7532" gradientUnits="userSpaceOnUse">
<stop stop-color="#AA8453"/>
<stop offset="0.173605" stop-color="#B99F7C"/>
<stop offset="0.334103" stop-color="#AB8554"/>
<stop offset="0.418887" stop-color="#B89D79"/>
<stop offset="0.871684" stop-color="#AA8453"/>
</linearGradient>
</defs>
</svg>
