<svg width="351" height="439" viewBox="0 0 351 439" fill="none" xmlns="http://www.w3.org/2000/svg">
<g filter="url(#filter0_d_202_3716)">
<path d="M345.561 459.128L342.051 464.039C338.481 469.035 332.718 472 326.577 472C321.16 472 316.001 469.691 312.392 465.651L309.601 462.527C307.931 460.658 306.516 458.575 305.393 456.334L222.915 291.754L134.138 458.707C132.367 462.036 129.676 464.786 126.385 466.628C120.422 469.966 113.153 469.966 107.19 466.628L104.58 465.168C98.3758 461.695 93.9408 455.73 92.391 448.791C91.5881 445.196 91.5865 441.461 92.3894 437.866L93.9642 430.814C94.5388 428.242 95.4498 425.756 96.6739 423.422L193.638 238.5L94.5216 48.2995C92.3199 44.0746 91.1702 39.3807 91.1702 34.6165C91.1702 26.1973 94.7544 18.1762 101.026 12.5597L103.632 10.2266C107.39 6.86099 112.258 5 117.303 5C121.72 5 126.019 6.42727 129.559 9.06913L130.564 9.81932C133.539 12.0389 135.964 14.9109 137.655 18.2145L250.379 238.5L347.797 428.872C349.902 432.986 351 437.542 351 442.163C351 448.247 349.098 454.178 345.561 459.128Z" fill="#80C555"/>
<path d="M157.291 223.779L49.8377 18.1352C48.1379 14.8821 45.7279 12.0532 42.7863 9.85794L40.676 8.28308C37.8197 6.15156 34.3512 5 30.7872 5C27.2233 5 23.7548 6.15156 20.8985 8.28307L18.4314 10.1242C15.7165 12.1502 13.427 14.691 11.6936 17.6015L11.2249 18.3885C8.45971 23.0315 7 28.3352 7 33.7392V34.7547C7 39.4323 8.09382 44.0452 10.1941 48.2248L105.809 238.5L9.95247 429.256C8.01107 433.12 7 437.383 7 441.707C7 450.459 11.1315 458.697 18.1455 463.931L21.4817 466.421C26.2271 469.962 32.282 471.256 38.0601 469.962C43.8915 468.657 48.8517 464.848 51.6191 459.552L157.291 257.317C159.532 253.029 160.702 248.262 160.702 243.424V237.672C160.702 232.834 159.532 228.067 157.291 223.779Z" fill="#80C555"/>
<path d="M345.561 459.128L342.051 464.039C338.481 469.035 332.718 472 326.577 472C321.16 472 316.001 469.691 312.392 465.651L309.601 462.527C307.931 460.658 306.516 458.575 305.393 456.334L222.915 291.754L134.138 458.707C132.367 462.036 129.676 464.786 126.385 466.628C120.422 469.966 113.153 469.966 107.19 466.628L104.58 465.168C98.3758 461.695 93.9408 455.73 92.391 448.791C91.5881 445.196 91.5865 441.461 92.3894 437.866L93.9642 430.814C94.5388 428.242 95.4498 425.756 96.6739 423.422L193.638 238.5L94.5216 48.2995C92.3199 44.0746 91.1702 39.3807 91.1702 34.6165C91.1702 26.1973 94.7544 18.1762 101.026 12.5597L103.632 10.2266C107.39 6.86099 112.258 5 117.303 5C121.72 5 126.019 6.42727 129.559 9.06913L130.564 9.81932C133.539 12.0389 135.964 14.9109 137.655 18.2145L250.379 238.5L347.797 428.872C349.902 432.986 351 437.542 351 442.163C351 448.247 349.098 454.178 345.561 459.128Z" fill="#FDD30A"/>
</g>
<defs>
<filter id="filter0_d_202_3716" x="0" y="0" width="360" height="483" filterUnits="userSpaceOnUse" color-interpolation-filters="sRGB">
<feFlood flood-opacity="0" result="BackgroundImageFix"/>
<feColorMatrix in="SourceAlpha" type="matrix" values="0 0 0 0 0 0 0 0 0 0 0 0 0 0 0 0 0 0 127 0" result="hardAlpha"/>
<feOffset dx="1" dy="3"/>
<feGaussianBlur stdDeviation="4"/>
<feComposite in2="hardAlpha" operator="out"/>
<feColorMatrix type="matrix" values="0 0 0 0 0 0 0 0 0 0 0 0 0 0 0 0 0 0 0.08 0"/>
<feBlend mode="normal" in2="BackgroundImageFix" result="effect1_dropShadow_202_3716"/>
<feBlend mode="normal" in="SourceGraphic" in2="effect1_dropShadow_202_3716" result="shape"/>
</filter>
</defs>
</svg>
